<mxfile host="app.diagrams.net" modified="2022-03-07T06:26:10.225Z" agent="5.0 (Windows NT 6.1; Win64; x64) AppleWebKit/537.36 (KHTML, like Gecko) Chrome/99.0.4844.51 Safari/537.36" etag="mzJRo2-Qa740O_ydLtTk" version="16.6.6" type="github" pages="3">
  <diagram name="Page-1" id="edf60f1a-56cd-e834-aa8a-f176f3a09ee4">
    <mxGraphModel dx="1422" dy="762" grid="1" gridSize="10" guides="1" tooltips="1" connect="1" arrows="1" fold="1" page="1" pageScale="1" pageWidth="1100" pageHeight="850" background="none" math="0" shadow="0">
      <root>
        <mxCell id="0" />
        <mxCell id="1" parent="0" />
        <mxCell id="XtzeatBfKSmv8iPEmUro-1" value="客户端" style="rounded=0;whiteSpace=wrap;html=1;" vertex="1" parent="1">
          <mxGeometry x="160" y="200" width="120" height="40" as="geometry" />
        </mxCell>
        <mxCell id="XtzeatBfKSmv8iPEmUro-2" value="" style="rounded=0;whiteSpace=wrap;html=1;" vertex="1" parent="1">
          <mxGeometry x="430" y="100" width="170" height="310" as="geometry" />
        </mxCell>
        <mxCell id="XtzeatBfKSmv8iPEmUro-3" value="单点入口" style="rounded=0;whiteSpace=wrap;html=1;" vertex="1" parent="1">
          <mxGeometry x="460" y="150" width="110" height="40" as="geometry" />
        </mxCell>
        <mxCell id="XtzeatBfKSmv8iPEmUro-4" value="API GateWay" style="text;html=1;strokeColor=none;fillColor=none;align=center;verticalAlign=middle;whiteSpace=wrap;rounded=0;" vertex="1" parent="1">
          <mxGeometry x="470" y="110" width="90" height="30" as="geometry" />
        </mxCell>
        <mxCell id="XtzeatBfKSmv8iPEmUro-5" value="路由转发" style="rounded=0;whiteSpace=wrap;html=1;" vertex="1" parent="1">
          <mxGeometry x="460" y="200" width="110" height="40" as="geometry" />
        </mxCell>
        <mxCell id="XtzeatBfKSmv8iPEmUro-6" value="限流熔断" style="rounded=0;whiteSpace=wrap;html=1;" vertex="1" parent="1">
          <mxGeometry x="460" y="250" width="110" height="40" as="geometry" />
        </mxCell>
        <mxCell id="XtzeatBfKSmv8iPEmUro-7" value="日志监控" style="rounded=0;whiteSpace=wrap;html=1;" vertex="1" parent="1">
          <mxGeometry x="460" y="300" width="110" height="40" as="geometry" />
        </mxCell>
        <mxCell id="XtzeatBfKSmv8iPEmUro-8" value="安全认证" style="rounded=0;whiteSpace=wrap;html=1;" vertex="1" parent="1">
          <mxGeometry x="460" y="350" width="110" height="40" as="geometry" />
        </mxCell>
        <mxCell id="XtzeatBfKSmv8iPEmUro-9" value="" style="endArrow=classic;html=1;rounded=0;entryX=-0.018;entryY=0.387;entryDx=0;entryDy=0;entryPerimeter=0;" edge="1" parent="1" target="XtzeatBfKSmv8iPEmUro-2">
          <mxGeometry width="50" height="50" relative="1" as="geometry">
            <mxPoint x="280" y="220" as="sourcePoint" />
            <mxPoint x="330" y="170" as="targetPoint" />
          </mxGeometry>
        </mxCell>
        <mxCell id="XtzeatBfKSmv8iPEmUro-10" value="用户微服务" style="rounded=0;whiteSpace=wrap;html=1;" vertex="1" parent="1">
          <mxGeometry x="670" y="100" width="120" height="30" as="geometry" />
        </mxCell>
        <mxCell id="XtzeatBfKSmv8iPEmUro-11" value="商品微服务" style="rounded=0;whiteSpace=wrap;html=1;" vertex="1" parent="1">
          <mxGeometry x="670" y="200" width="120" height="30" as="geometry" />
        </mxCell>
        <mxCell id="XtzeatBfKSmv8iPEmUro-12" value="支付微服务" style="rounded=0;whiteSpace=wrap;html=1;" vertex="1" parent="1">
          <mxGeometry x="670" y="305" width="120" height="30" as="geometry" />
        </mxCell>
        <mxCell id="XtzeatBfKSmv8iPEmUro-13" value="" style="endArrow=classic;html=1;rounded=0;entryX=0;entryY=0.5;entryDx=0;entryDy=0;" edge="1" parent="1" target="XtzeatBfKSmv8iPEmUro-10">
          <mxGeometry width="50" height="50" relative="1" as="geometry">
            <mxPoint x="600" y="210" as="sourcePoint" />
            <mxPoint x="650" y="160" as="targetPoint" />
          </mxGeometry>
        </mxCell>
        <mxCell id="XtzeatBfKSmv8iPEmUro-14" value="" style="endArrow=classic;html=1;rounded=0;entryX=0;entryY=0.5;entryDx=0;entryDy=0;" edge="1" parent="1" target="XtzeatBfKSmv8iPEmUro-11">
          <mxGeometry width="50" height="50" relative="1" as="geometry">
            <mxPoint x="600" y="210" as="sourcePoint" />
            <mxPoint x="730" y="410" as="targetPoint" />
          </mxGeometry>
        </mxCell>
        <mxCell id="XtzeatBfKSmv8iPEmUro-15" value="" style="endArrow=classic;html=1;rounded=0;entryX=0;entryY=0.75;entryDx=0;entryDy=0;exitX=1;exitY=0.355;exitDx=0;exitDy=0;exitPerimeter=0;" edge="1" parent="1" source="XtzeatBfKSmv8iPEmUro-2" target="XtzeatBfKSmv8iPEmUro-12">
          <mxGeometry width="50" height="50" relative="1" as="geometry">
            <mxPoint x="610" y="220" as="sourcePoint" />
            <mxPoint x="680" y="245" as="targetPoint" />
          </mxGeometry>
        </mxCell>
      </root>
    </mxGraphModel>
  </diagram>
  <diagram id="EBa3nZ1A5lwcBokBMZ_2" name="Page-2">
    <mxGraphModel dx="1422" dy="762" grid="1" gridSize="10" guides="1" tooltips="1" connect="1" arrows="1" fold="1" page="1" pageScale="1" pageWidth="827" pageHeight="1169" math="0" shadow="0">
      <root>
        <mxCell id="avKiGPb8FGoAACGy_ie--0" />
        <mxCell id="avKiGPb8FGoAACGy_ie--1" parent="avKiGPb8FGoAACGy_ie--0" />
        <mxCell id="avKiGPb8FGoAACGy_ie--2" value="Netflix Zuul内核+Spring boot" style="rounded=0;whiteSpace=wrap;html=1;" vertex="1" parent="avKiGPb8FGoAACGy_ie--1">
          <mxGeometry x="240" y="110" width="180" height="60" as="geometry" />
        </mxCell>
        <mxCell id="avKiGPb8FGoAACGy_ie--3" value="EnableZuulProxy注解" style="rounded=0;whiteSpace=wrap;html=1;" vertex="1" parent="avKiGPb8FGoAACGy_ie--1">
          <mxGeometry x="240" y="210" width="180" height="60" as="geometry" />
        </mxCell>
        <mxCell id="avKiGPb8FGoAACGy_ie--4" value="&lt;font color=&quot;#ff3333&quot;&gt;去掉了动态过滤器加载&lt;/font&gt;" style="rounded=0;whiteSpace=wrap;html=1;" vertex="1" parent="avKiGPb8FGoAACGy_ie--1">
          <mxGeometry x="240" y="320" width="180" height="60" as="geometry" />
        </mxCell>
      </root>
    </mxGraphModel>
  </diagram>
  <diagram id="pw9rdeexkufzrjIra8S-" name="Page-3">
    <mxGraphModel dx="1422" dy="762" grid="1" gridSize="10" guides="1" tooltips="1" connect="1" arrows="1" fold="1" page="1" pageScale="1" pageWidth="827" pageHeight="1169" math="0" shadow="0">
      <root>
        <mxCell id="PGig9WLUGo-ZTz1WkYAO-0" />
        <mxCell id="PGig9WLUGo-ZTz1WkYAO-1" parent="PGig9WLUGo-ZTz1WkYAO-0" />
        <mxCell id="PGig9WLUGo-ZTz1WkYAO-2" value="HTTP Request" style="rounded=0;whiteSpace=wrap;html=1;fontColor=#000033;" vertex="1" parent="PGig9WLUGo-ZTz1WkYAO-1">
          <mxGeometry x="230" y="120" width="120" height="60" as="geometry" />
        </mxCell>
        <mxCell id="PGig9WLUGo-ZTz1WkYAO-3" value="" style="rounded=0;whiteSpace=wrap;html=1;fontColor=#FF3333;" vertex="1" parent="PGig9WLUGo-ZTz1WkYAO-1">
          <mxGeometry x="230" y="220" width="120" height="60" as="geometry" />
        </mxCell>
        <mxCell id="PGig9WLUGo-ZTz1WkYAO-4" value="" style="endArrow=classic;html=1;rounded=0;fontColor=#FF3333;exitX=0.35;exitY=1.033;exitDx=0;exitDy=0;exitPerimeter=0;entryX=0.333;entryY=0;entryDx=0;entryDy=0;entryPerimeter=0;" edge="1" parent="PGig9WLUGo-ZTz1WkYAO-1" source="PGig9WLUGo-ZTz1WkYAO-2" target="PGig9WLUGo-ZTz1WkYAO-3">
          <mxGeometry width="50" height="50" relative="1" as="geometry">
            <mxPoint x="310" y="180" as="sourcePoint" />
            <mxPoint x="360" y="130" as="targetPoint" />
          </mxGeometry>
        </mxCell>
        <mxCell id="PGig9WLUGo-ZTz1WkYAO-5" value="" style="endArrow=classic;html=1;rounded=0;fontColor=#FF3333;entryX=0.833;entryY=1.017;entryDx=0;entryDy=0;entryPerimeter=0;" edge="1" parent="PGig9WLUGo-ZTz1WkYAO-1" target="PGig9WLUGo-ZTz1WkYAO-2">
          <mxGeometry width="50" height="50" relative="1" as="geometry">
            <mxPoint x="330" y="220" as="sourcePoint" />
            <mxPoint x="380" y="170" as="targetPoint" />
          </mxGeometry>
        </mxCell>
        <mxCell id="PGig9WLUGo-ZTz1WkYAO-6" value="&lt;font color=&quot;#000033&quot;&gt;&amp;nbsp;Request&lt;/font&gt;" style="text;html=1;strokeColor=none;fillColor=none;align=center;verticalAlign=middle;whiteSpace=wrap;rounded=0;fontColor=#FF3333;" vertex="1" parent="PGig9WLUGo-ZTz1WkYAO-1">
          <mxGeometry x="210" y="180" width="60" height="30" as="geometry" />
        </mxCell>
        <mxCell id="PGig9WLUGo-ZTz1WkYAO-7" value="&lt;font color=&quot;#000033&quot;&gt;&amp;nbsp;Response&lt;/font&gt;" style="text;html=1;strokeColor=none;fillColor=none;align=center;verticalAlign=middle;whiteSpace=wrap;rounded=0;fontColor=#FF3333;" vertex="1" parent="PGig9WLUGo-ZTz1WkYAO-1">
          <mxGeometry x="330" y="180" width="60" height="30" as="geometry" />
        </mxCell>
        <mxCell id="PGig9WLUGo-ZTz1WkYAO-8" value="Request" style="rounded=0;whiteSpace=wrap;html=1;fontColor=#000033;" vertex="1" parent="PGig9WLUGo-ZTz1WkYAO-1">
          <mxGeometry x="250" y="230" width="80" height="30" as="geometry" />
        </mxCell>
        <mxCell id="PGig9WLUGo-ZTz1WkYAO-9" value="Thread" style="text;html=1;strokeColor=none;fillColor=none;align=center;verticalAlign=middle;whiteSpace=wrap;rounded=0;fontColor=#000033;" vertex="1" parent="PGig9WLUGo-ZTz1WkYAO-1">
          <mxGeometry x="260" y="260" width="60" height="20" as="geometry" />
        </mxCell>
        <mxCell id="PGig9WLUGo-ZTz1WkYAO-10" value="" style="rounded=0;whiteSpace=wrap;html=1;fontColor=#FF3333;" vertex="1" parent="PGig9WLUGo-ZTz1WkYAO-1">
          <mxGeometry x="230" y="330" width="120" height="60" as="geometry" />
        </mxCell>
        <mxCell id="PGig9WLUGo-ZTz1WkYAO-11" value="Network call" style="rounded=0;whiteSpace=wrap;html=1;fontColor=#000033;" vertex="1" parent="PGig9WLUGo-ZTz1WkYAO-1">
          <mxGeometry x="250" y="340" width="80" height="30" as="geometry" />
        </mxCell>
        <mxCell id="PGig9WLUGo-ZTz1WkYAO-12" value="Thread" style="text;html=1;strokeColor=none;fillColor=none;align=center;verticalAlign=middle;whiteSpace=wrap;rounded=0;fontColor=#000033;" vertex="1" parent="PGig9WLUGo-ZTz1WkYAO-1">
          <mxGeometry x="270" y="370" width="30" height="30" as="geometry" />
        </mxCell>
        <mxCell id="PGig9WLUGo-ZTz1WkYAO-14" value="Block" style="text;html=1;align=center;verticalAlign=middle;resizable=0;points=[];autosize=1;strokeColor=none;fillColor=none;fontColor=#FF6666;" vertex="1" parent="PGig9WLUGo-ZTz1WkYAO-1">
          <mxGeometry x="220" y="300" width="40" height="20" as="geometry" />
        </mxCell>
        <mxCell id="PGig9WLUGo-ZTz1WkYAO-16" value="" style="endArrow=none;dashed=1;html=1;rounded=0;labelBackgroundColor=#FF6666;labelBorderColor=#FF6666;fontColor=#FF6666;strokeColor=#FF6666;entryX=0.117;entryY=1.1;entryDx=0;entryDy=0;entryPerimeter=0;" edge="1" parent="PGig9WLUGo-ZTz1WkYAO-1" target="PGig9WLUGo-ZTz1WkYAO-9">
          <mxGeometry width="50" height="50" relative="1" as="geometry">
            <mxPoint x="265" y="330" as="sourcePoint" />
            <mxPoint x="270" y="290" as="targetPoint" />
          </mxGeometry>
        </mxCell>
        <mxCell id="PGig9WLUGo-ZTz1WkYAO-19" value="" style="endArrow=classic;html=1;rounded=0;labelBackgroundColor=#FF6666;labelBorderColor=#FF6666;fontColor=#FF6666;strokeColor=#99FF33;entryX=1;entryY=1;entryDx=0;entryDy=0;" edge="1" parent="PGig9WLUGo-ZTz1WkYAO-1" target="PGig9WLUGo-ZTz1WkYAO-9">
          <mxGeometry width="50" height="50" relative="1" as="geometry">
            <mxPoint x="320" y="330" as="sourcePoint" />
            <mxPoint x="370" y="280" as="targetPoint" />
          </mxGeometry>
        </mxCell>
        <mxCell id="PGig9WLUGo-ZTz1WkYAO-20" value="unblock" style="text;html=1;strokeColor=none;fillColor=none;align=center;verticalAlign=middle;whiteSpace=wrap;rounded=0;fontColor=#FF6666;" vertex="1" parent="PGig9WLUGo-ZTz1WkYAO-1">
          <mxGeometry x="330" y="290" width="60" height="30" as="geometry" />
        </mxCell>
      </root>
    </mxGraphModel>
  </diagram>
</mxfile>
